<svg width="32" height="32" viewBox="0 0 32 32" fill="none" xmlns="http://www.w3.org/2000/svg">
    <style>
        .logo { fill: #0E2F56; }
        .background { fill: #ECECDA; }
        @media (prefers-color-scheme: dark) {
            .logo { fill: #ECECDA; }
            .background { fill: #0E2F56; }
        }
    </style>
    <rect width="32" height="32" class="background" />
    <path class="logo" fill-rule="evenodd" clip-rule="evenodd" d="M25.9334 8.65295C25.7239 9.0029 25.5271 9.33825 25.4961 9.39818C25.4362 9.51385 25.3787 9.9208 25.2843 10.8978C25.215 11.6153 25.2401 11.6044 24.6503 11.1733C22.6599 9.71865 22.8874 9.75178 22.1921 10.8154C20.6876 13.1169 20.7981 12.9764 20.6042 12.8341C20.5327 12.7816 20.3662 12.6626 20.2341 12.5695C20.1021 12.4765 19.7023 12.1913 19.3458 11.9357C18.4301 11.2793 18.5241 11.2708 17.9796 12.0583C17.4507 12.8231 17.4607 12.8593 17.6921 11.0211C17.8135 10.056 17.8039 9.95216 17.5984 10.0135C17.4723 10.0511 17.0155 10.6556 16.6919 11.213C16.6755 11.241 16.6392 11.4787 16.611 11.7411C16.5253 12.5399 16.5057 12.7072 16.3244 14.1906C16.2856 14.5078 16.2432 14.634 16.0913 14.8839C15.8143 15.3392 15.8297 15.3384 15.266 14.9276C14.997 14.7315 14.6273 14.4678 14.4444 14.3414C14.0742 14.0858 14.0539 14.0304 14.2337 13.766C14.3875 13.5396 14.359 13.5345 14.8361 13.8749C15.3492 14.2409 15.2686 14.2567 15.6626 13.7128C16.0111 13.2317 16.0181 13.2636 15.4781 12.8648C14.6126 12.2255 14.7899 12.1076 13.3436 14.2848C12.6957 15.2601 12.5201 15.5075 12.4758 15.5075C12.4482 15.5075 12.2053 15.3495 11.9362 15.1565C10.7665 14.3174 10.932 14.3049 10.316 15.2794C9.56207 16.472 9.71338 16.4184 8.85631 15.7956C7.9858 15.1628 8.11377 15.1229 7.34045 16.2685C6.82291 17.0352 6.91568 17.0191 6.18874 16.4686C5.49566 15.9437 5.70146 15.799 4.48249 17.6682C4.19832 18.104 3.86104 18.6176 3.73293 18.8096C3.60482 19.0015 3.5 19.2 3.5 19.2505C3.5 19.3269 3.7228 19.5409 3.80241 19.5409C3.82397 19.5409 4.09062 19.1468 4.81414 18.0453C5.22945 17.413 5.19219 17.4199 5.79836 17.8622C6.19503 18.1516 6.17448 18.0605 6.07177 19.0741C6.03369 19.4497 5.95581 20.2324 5.89862 20.8134C5.76388 22.183 5.77968 22.1548 5.32121 21.8434C4.97822 21.6105 5.00737 21.596 4.62409 22.1886C4.24715 22.7713 4.23582 22.6829 4.73645 23.0649C5.31487 23.5064 5.26628 23.5285 5.94044 22.5183C6.59113 21.5434 6.55473 21.5629 7.03986 21.9297C8.10935 22.7385 8.00995 22.7576 8.78193 21.5962C9.48241 20.5423 9.32223 20.5647 10.4385 21.3642C10.9806 21.7523 10.9783 21.7535 11.6071 20.7602C12.7131 19.0131 13.3727 18.0035 13.4198 17.9854C13.449 17.9742 13.5664 18.0455 13.6806 18.144L13.8884 18.3229L13.5755 18.8238C13.4034 19.0994 13.2013 19.4306 13.1264 19.5599L12.9901 19.7951L13.1308 19.9127C13.5322 20.2481 14.145 20.6453 14.2611 20.6453C14.4203 20.6453 14.4197 20.646 15.0041 19.7396C15.5893 18.8321 15.5234 18.8524 16.2266 19.3639C17.1103 20.0067 17.0189 20.0162 17.5141 19.2301C17.9469 18.5433 17.9103 18.5563 18.4032 18.9122C19.0171 19.3553 18.9794 19.3713 19.6074 18.4005C19.8679 17.9977 20.1065 17.6682 20.1376 17.6682C20.1687 17.6682 20.4499 17.8524 20.7625 18.0775C21.5335 18.6327 21.6336 18.6418 21.923 18.1832C21.9935 18.0716 22.2986 17.6022 22.6012 17.1401C22.9038 16.6779 23.2405 16.1606 23.3494 15.9906C24.0378 14.9157 23.9386 14.9597 24.5997 15.4359C25.1678 15.8451 25.1577 15.8268 24.9759 16.1145C24.8122 16.3735 24.7403 16.3757 24.416 16.1307C24.115 15.9035 24.0729 15.9114 23.8833 16.2319C23.8041 16.3656 23.6911 16.5544 23.6321 16.6515C23.4645 16.9274 23.4879 17.0113 23.7994 17.2499C24.4149 17.7214 24.521 17.7025 24.9524 17.044C25.0995 16.8195 25.3968 16.3658 25.6133 16.0356C26.3473 14.9161 26.3477 14.9505 25.5938 14.4283C25.3134 14.2339 24.9219 13.9543 24.7239 13.8069C24.5259 13.6594 24.3301 13.5387 24.2887 13.5387C24.0955 13.5387 23.4625 14.471 23.5065 14.6909C23.5374 14.8457 23.1609 15.5261 23.0647 15.4892C23.0333 15.4771 22.7319 15.271 22.3951 15.0312C21.5898 14.4577 21.5606 14.459 21.172 15.0873C21.0371 15.3052 20.7894 15.6995 20.6214 15.9636C20.4534 16.2277 20.1961 16.6383 20.0497 16.876C19.3971 17.9351 19.4015 17.9312 19.0861 17.71L18.8553 17.5482L18.8862 17.1881C18.9031 16.99 18.9469 16.5686 18.9834 16.2517C19.1984 14.3841 19.2248 14.5792 18.7035 14.1867C18.3183 13.8968 18.2679 13.8797 18.1961 14.0139C18.1457 14.1079 18.137 14.1802 18.0437 15.2674C18.0132 15.6239 17.982 15.948 17.9744 15.9876C17.9668 16.0272 17.959 16.1191 17.957 16.1917C17.9519 16.3741 17.8934 16.3596 17.5211 16.0837C17.0431 15.7292 17.1591 15.6264 15.89 17.5292C14.6301 19.4181 14.7219 19.3206 14.4126 19.0984C14.0981 18.8725 14.1015 18.8476 14.5402 18.1725C15.0771 17.3464 15.1032 17.4398 14.1453 16.7601C13.3605 16.2032 13.4532 16.193 13.0159 16.8853C12.7492 17.3075 12.7175 17.4347 12.8544 17.5335C13.0229 17.655 13.0179 17.7133 12.8128 18.0174C12.418 18.603 12.4101 18.6065 12.0711 18.3516C11.2261 17.7162 11.0342 17.6159 10.8513 17.7138C10.7961 17.7433 10.3653 18.3448 9.89383 19.0503C8.63231 20.9385 8.43765 21.2215 8.40039 21.2215C8.36687 21.2215 7.86048 20.8488 7.5196 20.5733C7.30429 20.3992 7.30261 20.3772 7.48575 20.1243C7.66259 19.8802 7.67009 19.8801 7.99704 20.1142C8.32447 20.3487 8.31333 20.3537 8.65843 19.8184C9.07657 19.1699 9.07181 19.1481 8.41277 18.6928C8.05557 18.446 8.0149 18.4689 7.54529 19.1805C6.98007 20.0369 6.9952 20.069 7.17704 18.3976C7.29742 17.291 7.30515 17.2529 7.46111 16.996C7.67916 16.6368 7.69006 16.6387 8.3856 17.1592C9.27647 17.8258 9.23008 17.8402 9.98208 16.665C10.5774 15.7346 10.4756 15.7566 11.3363 16.3718C12.2165 17.0009 12.1207 17.0296 12.8288 15.925C13.3353 15.1348 13.2423 15.1472 14.0841 15.7572C15.6275 16.8755 15.3502 16.972 16.7103 14.8428C18.1364 12.6104 17.9995 12.706 18.8656 13.3371C20.3763 14.4377 20.3629 14.4359 20.9189 13.6108C21.3402 12.9856 21.3178 12.987 22.0828 13.5375C22.907 14.1307 22.8795 14.136 23.4449 13.2746C23.9836 12.4539 23.9987 12.4343 24.0968 12.4343C24.1487 12.4343 24.4859 12.6504 24.8462 12.9145C25.7799 13.5989 25.6041 13.6823 26.6695 12.0502C26.9023 11.6937 27.1863 11.2586 27.3007 11.0834C27.5392 10.7182 27.5566 10.604 27.3904 10.4951C27.2087 10.3761 27.1972 10.3847 26.8393 10.9098C26.2737 11.7395 26.2272 11.7573 26.3101 11.1118C26.5323 9.38166 26.6243 8.15976 26.5388 8.07433C26.4003 7.93576 26.3126 8.01955 25.9334 8.65295ZM24.4694 10.1655C24.3553 10.398 24.4552 10.6097 24.6789 10.6097C24.9283 10.6097 25.0468 10.3084 24.8678 10.1295C24.7272 9.98884 24.5481 10.005 24.4694 10.1655ZM20.4336 11.3217C20.2679 11.5048 20.4004 11.8101 20.6455 11.8101C20.7591 11.8101 20.8824 11.6537 20.8824 11.5097C20.8824 11.2612 20.5967 11.1415 20.4336 11.3217ZM23.0605 11.6738C23.3547 11.8894 23.6052 12.0739 23.6172 12.0838C23.6437 12.1057 23.5063 12.3648 23.3812 12.529L23.2908 12.6476L22.9238 12.3961C22.0284 11.7825 22.0707 11.8403 22.2799 11.5142C22.4687 11.22 22.4305 11.2121 23.0605 11.6738ZM10.4839 12.6241C10.1102 12.8143 9.96148 13.4109 10.1768 13.8557C10.477 14.4758 11.3841 14.3632 11.567 13.6831C11.777 12.9019 11.1475 12.2863 10.4839 12.6241ZM26.4695 13.5664C26.3149 13.8025 26.5152 14.0826 26.774 13.9922C26.8831 13.954 26.9113 13.9124 26.9231 13.7719C26.9495 13.4581 26.6341 13.3153 26.4695 13.5664ZM12.1219 13.8856C12.0217 14.0286 12.0277 14.124 12.145 14.2499C12.3077 14.4245 12.5216 14.3598 12.6001 14.1123C12.6848 13.8458 12.2831 13.6553 12.1219 13.8856ZM9.26211 14.6912C9.07047 14.8828 9.17145 15.1713 9.43017 15.1713C9.54383 15.1713 9.61024 15.1426 9.64457 15.0785C9.81537 14.7593 9.50661 14.4467 9.26211 14.6912ZM6.55862 15.4489C6.37232 15.6548 6.51262 15.9566 6.78234 15.9302C6.89638 15.9191 6.94267 15.8837 6.97882 15.7803C7.07899 15.4937 6.7517 15.2356 6.55862 15.4489ZM19.6613 15.5829C19.5043 15.74 19.6122 16.0837 19.8187 16.0837C19.944 16.0837 20.1141 15.9451 20.1141 15.8431C20.1141 15.5522 19.8461 15.3982 19.6613 15.5829ZM21.747 16.283C22.2726 16.6591 22.282 16.6774 22.1055 16.9786L21.9841 17.1857L21.4933 16.8221C21.2233 16.6221 20.9859 16.4431 20.9659 16.4242C20.9335 16.3939 21.1973 15.9396 21.2473 15.9396C21.2582 15.9396 21.4831 16.0941 21.747 16.283ZM10.5736 16.6496C10.2905 16.8295 10.5111 17.342 10.8041 17.1851C11.0506 17.0533 10.9725 16.6133 10.7026 16.6133C10.663 16.6133 10.605 16.6296 10.5736 16.6496ZM17.209 17.5538C17.7687 17.9597 17.7832 17.9894 17.5676 18.287L17.4219 18.4881L16.9135 18.1388C16.311 17.725 16.3163 17.7343 16.5127 17.4283C16.7001 17.1362 16.611 17.1201 17.209 17.5538ZM7.70615 17.5802C7.60574 17.7236 7.60934 17.7737 7.73107 17.9285C7.9252 18.1753 8.28735 17.9243 8.15065 17.6378C8.0621 17.4522 7.81798 17.4205 7.70615 17.5802ZM22.938 17.9203C22.7965 18.033 22.7882 18.234 22.9197 18.3655C23.0615 18.5073 23.1447 18.5151 23.2518 18.3967C23.4754 18.1497 23.1915 17.7187 22.938 17.9203ZM5.10172 18.3682C4.95325 18.5948 5.13466 18.8667 5.39136 18.8023C5.54569 18.7636 5.61801 18.603 5.55563 18.4375C5.4693 18.2085 5.23031 18.172 5.10172 18.3682ZM20.0859 18.8443C19.9359 19.0732 20.1209 19.3457 20.3819 19.2802C20.5673 19.2337 20.62 18.9066 20.4617 18.7847C20.3358 18.6876 20.1715 18.7137 20.0859 18.8443ZM10.9593 19.2287C11.1746 19.3738 11.4157 19.545 11.4949 19.609L11.639 19.7254L11.5189 19.9505C11.3345 20.2963 11.3385 20.297 10.6434 19.8105C10.166 19.4763 10.1719 19.4897 10.371 19.189C10.5516 18.9165 10.49 18.9123 10.9593 19.2287ZM15.583 20.1414C15.3874 20.337 15.4833 20.6453 15.7397 20.6453C15.8943 20.6453 15.9623 20.5827 16.0089 20.3971C16.0686 20.1593 15.754 19.9704 15.583 20.1414ZM12.4587 21.0569C12.2914 21.2242 12.4003 21.5577 12.6223 21.5577C12.8758 21.5577 12.9961 21.2582 12.8154 21.0775C12.7001 20.9622 12.5615 20.9541 12.4587 21.0569ZM9.40967 22.0203C9.29044 22.1719 9.28674 22.2232 9.38489 22.3633C9.55583 22.6074 9.93306 22.4088 9.85901 22.1137C9.79923 21.8755 9.56222 21.8263 9.40967 22.0203ZM6.66916 22.7466C6.47056 22.8088 6.41188 23.1164 6.5712 23.2606C6.77667 23.4465 7.07649 23.1936 6.97786 22.9175C6.931 22.7862 6.79069 22.7086 6.66916 22.7466Z" />
</svg>
