<svg width="512" height="512" viewBox="0 0 512 512" fill="none" xmlns="http://www.w3.org/2000/svg">
    <style>
        .logo { fill: #0E2F56; }
        .background { fill: #ECECDA; }
        @media (prefers-color-scheme: dark) {
            .logo { fill: #ECECDA; }
            .background { fill: #0E2F56; }
        }
    </style>
    <rect width="512" height="512" class="background"/>
    <path class="logo" fill-rule="evenodd" clip-rule="evenodd" d="M433.303 135.836C429.733 141.8 426.379 147.515 425.85 148.536C424.829 150.507 423.849 157.442 422.241 174.092C421.06 186.319 421.488 186.134 411.437 178.788C377.516 153.997 381.394 154.562 369.545 172.687C343.905 211.91 345.789 209.516 342.485 207.09C341.266 206.196 338.428 204.167 336.177 202.581C333.927 200.996 327.115 196.135 321.039 191.78C305.433 180.593 307.035 180.449 297.756 193.869C288.743 206.902 288.914 207.519 292.857 176.193C294.926 159.747 294.762 157.977 291.26 159.022C289.112 159.662 281.327 169.964 275.811 179.463C275.533 179.942 274.914 183.992 274.433 188.464C272.973 202.076 272.639 204.928 269.549 230.207C268.888 235.613 268.165 237.763 265.576 242.021C260.857 249.782 261.118 249.768 251.513 242.767C246.928 239.425 240.627 234.93 237.51 232.778C231.202 228.42 230.856 227.477 233.919 222.97C236.54 219.113 236.055 219.025 244.187 224.826C252.931 231.065 251.556 231.334 258.271 222.064C264.21 213.865 264.329 214.409 255.127 207.613C240.377 196.719 243.399 194.709 218.751 231.812C207.71 248.433 204.718 252.648 203.963 252.648C203.492 252.648 199.354 249.957 194.767 246.667C174.832 232.368 177.654 232.154 167.156 248.761C154.308 269.085 156.886 268.173 142.28 257.558C127.446 246.775 129.626 246.095 116.448 265.618C107.628 278.683 109.209 278.409 96.8207 269.027C85.0093 260.083 88.5166 257.617 67.7432 289.472C62.9005 296.898 57.1528 305.65 54.9696 308.922C52.7863 312.194 51 315.575 51 316.436C51 317.738 54.7969 321.385 56.1536 321.385C56.5211 321.385 61.0651 314.669 73.3952 295.898C80.4727 285.123 79.8377 285.24 90.1679 292.778C96.9279 297.71 96.5776 296.157 94.8273 313.43C94.1784 319.831 92.8511 333.169 91.8765 343.07C89.5804 366.411 89.8496 365.93 82.0365 360.624C76.1913 356.654 76.6881 356.408 70.1564 366.506C63.7327 376.437 63.5396 374.929 72.0712 381.44C81.9284 388.964 81.1003 389.34 92.5893 372.125C103.678 355.511 103.058 355.842 111.325 362.094C129.551 375.878 127.857 376.203 141.013 356.41C152.95 338.45 150.22 338.832 169.244 352.456C178.481 359.071 178.443 359.092 189.158 342.165C208.007 312.39 219.246 295.185 220.05 294.877C220.548 294.686 222.547 295.901 224.495 297.579L228.035 300.628L222.703 309.165C219.77 313.861 216.326 319.506 215.049 321.71L212.727 325.717L215.125 327.721C221.965 333.437 232.408 340.206 234.387 340.206C237.099 340.206 237.09 340.217 247.05 324.771C257.022 309.307 255.898 309.652 267.882 318.368C282.942 329.322 281.385 329.484 289.824 316.089C297.198 304.384 296.575 304.606 304.976 310.671C315.437 318.223 314.795 318.495 325.497 301.951C329.936 295.087 334.002 289.472 334.532 289.472C335.062 289.472 339.854 292.611 345.182 296.447C358.321 305.907 360.028 306.063 364.959 298.248C366.16 296.346 371.36 288.347 376.517 280.47C381.673 272.594 387.41 263.78 389.266 260.882C400.998 242.564 399.307 243.313 410.574 251.428C420.256 258.403 420.082 258.09 416.984 262.994C414.196 267.408 412.971 267.444 407.443 263.27C402.313 259.397 401.597 259.533 398.365 264.995C397.016 267.273 395.091 270.491 394.085 272.144C391.228 276.846 391.627 278.276 396.936 282.343C407.424 290.378 409.233 290.055 416.584 278.834C419.091 275.008 424.158 267.275 427.847 261.65C440.356 242.571 440.362 243.156 427.516 234.257C422.736 230.945 416.065 226.18 412.691 223.667C409.317 221.154 405.979 219.098 405.275 219.098C401.981 219.098 391.194 234.985 391.944 238.733C392.471 241.371 386.055 252.966 384.415 252.337C383.879 252.13 378.744 248.618 373.004 244.532C359.28 234.759 358.783 234.782 352.16 245.487C349.862 249.201 345.64 255.922 342.777 260.422C339.915 264.923 335.53 271.919 333.034 275.97C321.913 294.019 321.989 293.953 316.613 290.184L312.681 287.426L313.206 281.289C313.495 277.913 314.24 270.733 314.862 265.332C318.527 233.504 318.977 236.829 310.092 230.141C303.529 225.201 302.67 224.908 301.445 227.195C300.588 228.798 300.438 230.029 298.849 248.557C298.329 254.633 297.797 260.156 297.667 260.831C297.539 261.506 297.405 263.072 297.371 264.309C297.284 267.418 296.287 267.171 289.943 262.468C281.796 256.428 283.773 254.676 262.146 287.103C240.676 319.291 242.24 317.63 236.969 313.844C231.609 309.994 231.667 309.57 239.143 298.066C248.293 283.988 248.738 285.579 232.413 273.995C219.039 264.505 220.619 264.33 213.167 276.129C208.622 283.325 208.082 285.492 210.414 287.175C213.286 289.247 213.201 290.239 209.706 295.422C202.978 305.401 202.843 305.461 197.066 301.118C182.666 290.289 179.396 288.58 176.278 290.248C175.338 290.752 167.996 301.001 159.961 313.025C138.463 345.203 135.146 350.026 134.511 350.026C133.94 350.026 125.31 343.674 119.501 338.979C115.831 336.013 115.803 335.636 118.924 331.328C121.938 327.168 122.065 327.165 127.637 331.155C133.217 335.151 133.027 335.236 138.908 326.114C146.034 315.063 145.953 314.692 134.722 306.932C128.635 302.727 127.941 303.116 119.938 315.242C110.306 329.838 110.564 330.385 113.663 301.901C115.714 283.043 115.846 282.393 118.504 278.016C122.22 271.894 122.406 271.927 134.259 280.797C149.441 292.157 148.65 292.402 161.466 272.375C171.611 256.519 169.875 256.894 184.543 267.378C199.544 278.099 197.911 278.588 209.978 259.763C218.611 246.297 217.025 246.509 231.371 256.904C257.673 275.962 252.947 277.607 276.126 241.321C300.428 203.277 298.095 204.907 312.856 215.661C338.6 234.418 338.371 234.388 347.847 220.325C355.027 209.671 354.646 209.695 367.682 219.078C381.728 229.186 381.258 229.277 390.894 214.597C400.074 200.61 400.333 200.277 402.005 200.277C402.888 200.277 408.634 203.959 414.774 208.46C430.687 220.123 427.69 221.545 445.847 193.731C449.814 187.655 454.654 180.24 456.604 177.255C460.669 171.031 460.965 169.086 458.133 167.23C455.036 165.201 454.84 165.349 448.741 174.296C439.102 188.436 438.309 188.739 439.722 177.739C443.508 148.255 445.076 127.431 443.62 125.976C441.258 123.614 439.764 125.042 433.303 135.836ZM408.353 161.612C406.41 165.574 408.112 169.182 411.924 169.182C416.173 169.182 418.193 164.049 415.143 160.999C412.746 158.602 409.695 158.878 408.353 161.612ZM339.577 181.316C336.753 184.437 339.01 189.639 343.189 189.639C345.123 189.639 347.224 186.973 347.224 184.519C347.224 180.284 342.356 178.245 339.577 181.316ZM384.344 187.317C389.357 190.99 393.626 194.135 393.831 194.304C394.282 194.678 391.941 199.091 389.809 201.89L388.269 203.912L382.014 199.626C366.756 189.17 367.475 190.153 371.04 184.597C374.259 179.582 373.607 179.449 384.344 187.317ZM170.018 203.511C163.65 206.752 161.114 216.92 164.784 224.5C169.9 235.068 185.359 233.148 188.474 221.559C192.054 208.246 181.326 197.754 170.018 203.511ZM442.439 219.57C439.804 223.593 443.217 228.367 447.627 226.825C449.487 226.176 449.968 225.465 450.169 223.072C450.618 217.724 445.244 215.29 442.439 219.57ZM197.931 225.009C196.224 227.446 196.327 229.072 198.326 231.218C201.097 234.193 204.743 233.091 206.082 228.873C207.523 224.33 200.679 221.085 197.931 225.009ZM149.196 238.737C145.93 242.003 147.651 246.92 152.06 246.92C153.997 246.92 155.129 246.43 155.714 245.338C158.624 239.899 153.363 234.57 149.196 238.737ZM103.124 251.651C99.949 255.16 102.34 260.303 106.936 259.853C108.88 259.663 109.669 259.061 110.285 257.298C111.992 252.413 106.414 248.015 103.124 251.651ZM326.416 253.934C323.739 256.611 325.58 262.468 329.098 262.468C331.232 262.468 334.132 260.106 334.132 258.368C334.132 253.41 329.565 250.786 326.416 253.934ZM361.959 265.865C370.917 272.274 371.076 272.586 368.069 277.719L366 281.248L357.636 275.052C353.034 271.644 348.989 268.593 348.647 268.271C348.096 267.754 352.592 260.013 353.443 260.013C353.629 260.013 357.461 262.646 361.959 265.865ZM171.546 272.112C166.722 275.179 170.482 283.911 175.475 281.239C179.674 278.992 178.344 271.495 173.745 271.495C173.07 271.495 172.08 271.772 171.546 272.112ZM284.624 287.521C294.162 294.438 294.41 294.945 290.735 300.017L288.253 303.443L279.588 297.491C269.321 290.439 269.411 290.598 272.757 285.383C275.952 280.404 274.433 280.131 284.624 287.521ZM122.68 287.971C120.969 290.414 121.03 291.269 123.104 293.907C126.413 298.112 132.584 293.836 130.255 288.952C128.746 285.789 124.586 285.25 122.68 287.971ZM382.257 293.768C379.844 295.688 379.704 299.113 381.945 301.354C384.36 303.77 385.778 303.903 387.603 301.886C391.413 297.677 386.576 290.332 382.257 293.768ZM78.296 301.4C75.7658 305.263 78.8574 309.896 83.232 308.798C85.862 308.138 87.0944 305.401 86.0314 302.581C84.5601 298.678 80.4874 298.057 78.296 301.4ZM333.651 309.514C331.095 313.415 334.249 318.058 338.696 316.942C341.856 316.149 342.753 310.576 340.056 308.497C337.91 306.843 335.109 307.288 333.651 309.514ZM178.119 316.064C181.789 318.538 185.897 321.454 187.247 322.546L189.702 324.529L187.656 328.365C184.513 334.259 184.582 334.27 172.736 325.979C164.6 320.284 164.7 320.512 168.094 315.388C171.171 310.743 170.121 310.673 178.119 316.064ZM256.914 331.619C253.581 334.952 255.215 340.206 259.585 340.206C262.22 340.206 263.379 339.138 264.172 335.977C265.19 331.923 259.829 328.704 256.914 331.619ZM203.671 347.22C200.82 350.072 202.677 355.754 206.459 355.754C210.779 355.754 212.83 350.651 209.75 347.571C207.785 345.605 205.423 345.469 203.671 347.22ZM151.711 363.638C149.679 366.221 149.616 367.096 151.288 369.483C154.201 373.643 160.63 370.258 159.368 365.23C158.349 361.171 154.31 360.332 151.711 363.638ZM105.008 376.016C101.623 377.075 100.623 382.317 103.338 384.774C106.84 387.943 111.949 383.633 110.269 378.927C109.47 376.691 107.079 375.368 105.008 376.016Z"/>
</svg>
